<svg width="20" height="20" viewBox="0 0 20 20" fill="none" xmlns="http://www.w3.org/2000/svg">
<g clip-path="url(#clip0_63_252)">
<path d="M16.4482 8.66111C16.4256 9.11889 16.0783 9.68408 15.5186 10.2273V17.3855C15.518 17.5698 15.4453 17.7261 15.3227 17.8481C15.1994 17.9678 15.0395 18.0386 14.8514 18.0398H3.18586C2.9991 18.0386 2.83855 17.9678 2.71527 17.8481C2.59258 17.7261 2.52059 17.5698 2.51996 17.3855V5.94627C2.52059 5.76256 2.59258 5.60568 2.71527 5.48361C2.83855 5.36397 2.9991 5.29318 3.18586 5.29197H9.38152C9.88262 4.634 10.4667 3.96018 11.1284 3.34252C11.1314 3.33885 11.1339 3.33518 11.1369 3.33154H3.18586C2.45344 3.33092 1.78023 3.62572 1.30109 4.09693C0.819531 4.56815 0.519218 5.22733 0.519843 5.94631V17.3855C0.519218 18.1045 0.819531 18.7649 1.30109 19.2349C1.78019 19.706 2.45344 20.0002 3.18586 20.0002H14.8515C15.5852 20.0002 16.2584 19.706 16.7375 19.2348C17.2178 18.7649 17.5187 18.1044 17.5181 17.3855V7.94822C17.5181 7.94822 17.5132 7.94213 17.5053 7.936C17.202 8.19604 16.8486 8.44381 16.4482 8.66111Z" fill="black"/>
<path d="M19.4554 0C19.4554 0 18.8426 0.915547 14.8399 2.26988C10.7585 3.65113 8.24625 9.27004 8.24625 9.27004C7.64141 10.4212 5.25062 15.2039 5.25062 15.2039C4.59207 16.4392 5.79871 17.1692 6.50672 15.8936C7.86351 13.4448 8.73937 11.2073 10.8024 11.1438C13.812 11.051 15.8701 8.42285 15.2225 8.54492C14.3705 8.91602 12.4918 8.57301 13.5984 8.40211C16.2546 8.1891 17.8916 6.19262 17.3582 6.05715C16.4164 6.41969 15.5381 6.07547 15.366 5.97168C20.0541 5.4016 19.4554 0 19.4554 0Z" fill="black"/>
</g>
<defs>
<clipPath id="clip0_63_252">
<rect width="20" height="20" fill="white"/>
</clipPath>
</defs>
</svg>
