<svg width="20" height="20" viewBox="0 0 20 20" fill="none" xmlns="http://www.w3.org/2000/svg">
<path fill-rule="evenodd" clip-rule="evenodd" d="M1.89333 5.304C1.66667 5.74984 1.66667 6.33317 1.66667 7.49984V12.4998C1.66667 13.6665 1.66667 14.2498 1.89333 14.6957C2.09325 15.0876 2.41209 15.4061 2.80417 15.6057C3.25 15.8332 3.83333 15.8332 5 15.8332H15C16.1667 15.8332 16.75 15.8332 17.1958 15.6057C17.5876 15.406 17.9061 15.0874 18.1058 14.6957C18.3333 14.2498 18.3333 13.6665 18.3333 12.4998V7.49984C18.3333 6.33317 18.3333 5.74984 18.1058 5.304C17.9063 4.91193 17.5877 4.59308 17.1958 4.39317C16.75 4.1665 16.1667 4.1665 15 4.1665H5C3.83333 4.1665 3.25 4.1665 2.80417 4.39317C2.41196 4.59294 2.0931 4.9118 1.89333 5.304ZM3.8725 5.83317H16.1275C16.217 5.83306 16.3041 5.86175 16.376 5.915C16.4479 5.96825 16.5007 6.04322 16.5267 6.12883C16.5527 6.21444 16.5504 6.30614 16.5203 6.39037C16.4901 6.47459 16.4336 6.54687 16.3592 6.5965L10.4633 10.5398C10.3262 10.6316 10.165 10.6805 10 10.6805C9.83503 10.6805 9.67378 10.6316 9.53667 10.5398L3.64083 6.5965C3.5664 6.54687 3.50991 6.47459 3.47974 6.39037C3.44956 6.30614 3.4473 6.21444 3.47328 6.12883C3.49926 6.04322 3.55211 5.96825 3.62401 5.915C3.69591 5.86175 3.78303 5.83306 3.8725 5.83317Z" fill="black"/>
</svg>
