<svg width="25" height="25" viewBox="0 0 25 25" fill="none" xmlns="http://www.w3.org/2000/svg">
<path d="M15.6056 8.5128C16.62 8.46337 16.776 10.1254 15.6628 9.97973C14.7395 9.95371 14.6225 8.53882 15.6056 8.5128Z" fill="white"/>
<path d="M18.9296 12.4716C19.0102 6.52328 16.6277 5.75341 11.1944 6.08372C7.45172 5.79503 5.98219 8.63003 5.9718 11.9826C5.76893 15.265 6.78068 19.4134 10.8667 19.0649C15.9671 18.9739 19.1663 18.4563 18.9296 12.4716ZM10.011 2.23438C15.8527 1.69079 22.6151 2.52828 22.6957 9.83945C22.9011 13.205 23.0104 16.8125 21.3614 19.866C19.6058 22.8518 16.6798 22.727 13.6367 22.7972C10.9603 22.9039 8.20078 23.1353 5.62068 22.2588C2.99115 21.3485 2.27589 19.364 2.33311 16.7683C2.24208 14.5341 2.15105 12.3051 2.19006 10.0683C2.32011 4.76766 4.63492 2.11214 10.011 2.23438Z" fill="#525252"/>
<path d="M11.1944 6.08341C16.6277 5.75309 19.0076 6.52296 18.9295 12.4713C19.1662 18.456 15.9671 18.971 10.8693 19.0646C6.78066 19.4131 5.77152 15.2621 5.97439 11.9823C5.9822 8.62971 7.4517 5.79471 11.1944 6.08341ZM17.7851 12.6585C17.7851 8.97565 17.3326 7.02494 13.1503 7.21221C11.9071 7.33445 10.4532 7.14979 9.20473 7.57375C6.69743 8.79877 7.04337 12.1669 7.27486 14.5026C7.50113 18.2765 10.63 18.1647 13.5587 17.7433C17.1557 17.5535 17.819 16.0007 17.7851 12.6585Z" fill="white"/>
<path d="M12.8955 10.2426C10.2478 10.1074 9.43113 14.4691 12.3363 14.5862C15.0673 14.5211 15.4861 11.0203 12.8955 10.2426ZM12.3415 9.24127C16.9139 8.93177 16.6331 15.689 12.3207 15.6421C8.2347 15.5173 8.61704 9.60541 12.3415 9.24127Z" fill="white"/>
<path d="M12.3389 14.586C9.43366 14.4664 10.2477 10.1046 12.8981 10.2425C15.486 11.0201 15.0672 14.521 12.3389 14.586Z" fill="#525252"/>
<path d="M13.1503 7.21236C17.3326 7.02249 17.7878 8.97577 17.7851 12.6587C17.8164 16.0008 17.1557 17.5536 13.5587 17.7435C10.63 18.1648 7.50114 18.2766 7.27486 14.5027C7.04338 12.1645 6.70004 8.7989 9.20473 7.57387C10.4532 7.14994 11.9071 7.3346 13.1503 7.21236ZM12.3232 15.6419C16.633 15.6887 16.9164 8.93155 12.3441 9.24106C8.61692 9.6052 8.2346 15.5171 12.3232 15.6419ZM15.6628 9.97973C16.776 10.1254 16.6199 8.46598 15.6056 8.5128C14.6224 8.53882 14.7395 9.95371 15.6628 9.97973Z" fill="#525252"/>
</svg>
