<svg width="25" height="25" viewBox="0 0 25 25" fill="none" xmlns="http://www.w3.org/2000/svg">
<path d="M19.5 4.16653H5.59374C5.4145 4.15814 5.23535 4.18517 5.06657 4.2461C4.89779 4.30702 4.74269 4.40064 4.61013 4.52158C4.47757 4.64252 4.37017 4.78843 4.29407 4.95093C4.21798 5.11344 4.17468 5.28936 4.16666 5.46862V19.4061C4.17716 19.7813 4.33089 20.1382 4.59627 20.4035C4.86166 20.669 5.21857 20.8227 5.59374 20.8332H19.5C19.8647 20.817 20.2085 20.6584 20.4578 20.3917C20.7071 20.1249 20.8419 19.7711 20.8333 19.4061V5.46862C20.8363 5.29414 20.8036 5.1209 20.7373 4.9595C20.6709 4.79812 20.5723 4.65198 20.4474 4.53005C20.3226 4.40814 20.1742 4.31301 20.0112 4.2505C19.8483 4.18799 19.6744 4.15942 19.5 4.16653ZM9.37499 18.0624H6.94791V10.6353H9.37499V18.0624ZM8.21874 9.51028C8.04938 9.51619 7.88061 9.487 7.72307 9.42457C7.56552 9.36213 7.42258 9.26778 7.30325 9.14746C7.18391 9.02714 7.09073 8.88344 7.02958 8.72539C6.96843 8.56734 6.94063 8.39835 6.94791 8.22903C6.94042 8.05789 6.96878 7.88708 7.03119 7.72754C7.09359 7.568 7.18866 7.42327 7.31027 7.30264C7.4319 7.18199 7.57739 7.08811 7.73742 7.027C7.89746 6.96589 8.0685 6.93891 8.23957 6.94778C8.40894 6.94189 8.5777 6.97107 8.73524 7.0335C8.89279 7.09594 9.03573 7.19028 9.15506 7.31061C9.27441 7.43093 9.36758 7.57463 9.42873 7.73268C9.48989 7.89073 9.51769 8.05972 9.51041 8.22903C9.5179 8.40018 9.48953 8.57099 9.42712 8.73052C9.36472 8.89007 9.26966 9.03479 9.14804 9.15543C9.02642 9.27608 8.88093 9.36996 8.7209 9.43107C8.56085 9.49218 8.38981 9.51916 8.21874 9.51028ZM18.0625 18.0624H15.625V13.9999C15.625 13.0311 15.2812 12.3645 14.4167 12.3645C14.1481 12.3668 13.8868 12.4521 13.6686 12.6088C13.4504 12.7654 13.286 12.9857 13.1979 13.2395C13.1302 13.4297 13.1019 13.6317 13.1146 13.8332V18.0624H10.7187V10.6353H13.1146V11.677C13.3276 11.2856 13.6446 10.9608 14.0306 10.7383C14.4167 10.5159 14.8567 10.4046 15.3021 10.4165C16.875 10.4165 18.0625 11.4582 18.0625 13.677V18.0624Z" fill="#525252"/>
</svg>
