<svg width="20" height="20" viewBox="0 0 20 20" fill="none" xmlns="http://www.w3.org/2000/svg">
<path fill-rule="evenodd" clip-rule="evenodd" d="M13.1332 0.833573C13.6974 0.83016 14.2564 0.940123 14.7778 1.15683C15.2992 1.37353 15.7722 1.69251 16.1697 2.0948C16.5672 2.49706 16.8813 2.97461 17.0944 3.49951C17.3074 4.02439 17.4153 4.58651 17.4119 5.15335C17.4086 5.7202 17.2941 6.28096 17.0748 6.80322C16.8562 7.32396 16.5377 7.7964 16.137 8.19303L9.4215 14.9795L9.417 14.9839C8.9335 15.4581 8.33021 15.809 7.62823 15.823C6.91587 15.8372 6.28051 15.5012 5.74897 14.9682C5.12398 14.3413 4.95232 13.5888 5.04276 12.9166C5.12834 12.2804 5.44357 11.7245 5.78941 11.3632L5.79396 11.3585L10.9176 6.1736C11.2411 5.84623 11.7687 5.8431 12.0961 6.16659C12.4234 6.49009 12.4266 7.01771 12.1031 7.34508L6.98952 12.5198C6.85983 12.6571 6.72746 12.8942 6.69455 13.1387C6.66618 13.3497 6.70676 13.5682 6.92919 13.7913C7.24509 14.1082 7.46703 14.1592 7.59507 14.1567C7.73287 14.1539 7.95173 14.0851 8.24598 13.798L14.9622 7.01073C15.2076 6.76841 15.4035 6.47871 15.5381 6.15807C15.6728 5.83741 15.7432 5.49253 15.7453 5.1435C15.7473 4.79446 15.6809 4.44869 15.5501 4.12631C15.4193 3.80395 15.2267 3.51171 14.9843 3.26628C14.7417 3.02087 14.454 2.82715 14.1382 2.69585C13.8222 2.56456 13.4842 2.49815 13.1432 2.50022C12.8024 2.50227 12.4652 2.57277 12.1509 2.70788C11.8367 2.84299 11.5513 3.04018 11.3118 3.2885L11.3048 3.29577L4.5457 10.1357L4.5414 10.1399C4.16324 10.5117 3.86135 10.9563 3.65378 11.4484C3.4462 11.9404 3.33722 12.4697 3.33343 13.0053C3.32965 13.541 3.43114 14.0719 3.63177 14.5671C3.81984 15.0312 4.27157 15.6552 4.67202 16.0604C5.08351 16.4768 5.78994 17.015 6.23595 17.2001C6.72254 17.402 7.24357 17.5038 7.76882 17.5001C8.29408 17.4962 8.81358 17.3868 9.29717 17.1779C9.78083 16.969 10.2192 16.6645 10.5867 16.2817L10.5908 16.2774L16.9072 9.88542C17.2308 9.55808 17.7583 9.55492 18.0858 9.87842C18.4131 10.2019 18.4163 10.7296 18.0928 11.0569L11.7847 17.4405C11.2652 17.9804 10.6445 18.4114 9.95817 18.7079C9.27 19.0052 8.52983 19.1612 7.78088 19.1667C7.03193 19.1721 6.28961 19.0268 5.59717 18.7395C4.86413 18.4352 3.97614 17.7273 3.48652 17.2318C2.98588 16.7252 2.38252 15.922 2.08711 15.1929C1.80427 14.4949 1.66148 13.7474 1.66681 12.9936C1.67213 12.2398 1.82547 11.4943 2.11817 10.8006C2.41006 10.1087 2.83487 9.48158 3.3685 8.95583L10.1159 2.12764C10.5077 1.72237 10.9756 1.39901 11.4927 1.17672C12.0113 0.953715 12.569 0.83699 13.1332 0.833573Z" fill="black"/>
</svg>
