<svg width="73" height="67" viewBox="0 0 73 67" fill="none" xmlns="http://www.w3.org/2000/svg">
<path d="M61.3333 22.1569V15.2604C61.3333 10.9689 61.3333 8.8231 60.425 7.18395C59.6262 5.74209 58.3513 4.56983 56.7833 3.8352C55.0008 3 52.6671 3 48 3H16.3333C11.6662 3 9.33267 3 7.55008 3.8352C5.98204 4.56983 4.70721 5.74209 3.90829 7.18395C3 8.8231 3 10.9689 3 15.2604V56.6395L19.6667 48.9767M69.6667 64.3022L60.5258 58.6984C59.2771 57.9333 58.6529 57.5506 57.9775 57.2793C57.3779 57.0387 56.75 56.864 56.1058 56.7582C55.3804 56.6394 54.63 56.6395 53.1296 56.6395H33C28.3329 56.6395 25.9993 56.6394 24.2167 55.8042C22.6487 55.0697 21.3739 53.8973 20.575 52.4556C19.6667 50.8165 19.6667 48.6705 19.6667 44.379V34.4174C19.6667 30.1259 19.6667 27.9799 20.575 26.3408C21.3739 24.899 22.6487 23.7268 24.2167 22.9921C25.9993 22.1569 28.3329 22.1569 33 22.1569H56.3333C61.0004 22.1569 63.3342 22.1569 65.1167 22.9921C66.6846 23.7268 67.9596 24.899 68.7583 26.3408C69.6667 27.9799 69.6667 30.1259 69.6667 34.4174V64.3022Z" fill="#D9D9D9"/>
<path d="M61.3333 22.1569V15.2604C61.3333 10.9689 61.3333 8.8231 60.425 7.18395C59.6262 5.74209 58.3513 4.56983 56.7833 3.8352C55.0008 3 52.6671 3 48 3H16.3333C11.6662 3 9.33267 3 7.55008 3.8352C5.98204 4.56983 4.70721 5.74209 3.90829 7.18395C3 8.8231 3 10.9689 3 15.2604V56.6395L19.6667 48.9767M69.6667 64.3022L60.5258 58.6984C59.2771 57.9333 58.6529 57.5506 57.9775 57.2793C57.3779 57.0387 56.75 56.864 56.1058 56.7582C55.3804 56.6394 54.63 56.6395 53.1296 56.6395H33C28.3329 56.6395 25.9993 56.6394 24.2167 55.8042C22.6487 55.0697 21.3739 53.8973 20.575 52.4556C19.6667 50.8165 19.6667 48.6705 19.6667 44.379V34.4174C19.6667 30.1259 19.6667 27.9799 20.575 26.3408C21.3739 24.899 22.6487 23.7268 24.2167 22.9921C25.9993 22.1569 28.3329 22.1569 33 22.1569H56.3333C61.0004 22.1569 63.3342 22.1569 65.1167 22.9921C66.6846 23.7268 67.9596 24.899 68.7583 26.3408C69.6667 27.9799 69.6667 30.1259 69.6667 34.4174V64.3022Z" stroke="black" stroke-width="5" stroke-linecap="round" stroke-linejoin="round"/>
</svg>
