<svg width="20" height="21" viewBox="0 0 20 21" fill="none" xmlns="http://www.w3.org/2000/svg">
<path fill-rule="evenodd" clip-rule="evenodd" d="M6.29 18.4998C13.837 18.4998 17.965 12.3434 17.965 7.00517C17.965 6.82992 17.965 6.65598 17.953 6.48271C18.756 5.91167 19.449 5.20266 20 4.3914C19.252 4.71827 18.457 4.93263 17.644 5.02714C18.5 4.52207 19.141 3.72858 19.448 2.79228C18.642 3.26289 17.761 3.59502 16.842 3.77323C15.288 2.14676 12.689 2.06796 11.036 3.59794C9.971 4.58445 9.518 6.05532 9.849 7.45829C6.55 7.29486 3.476 5.76097 1.392 3.23759C0.303 5.0836 0.86 7.44429 2.663 8.62968C2.01 8.61097 1.371 8.43787 0.8 8.12479V8.17606C0.801 10.0989 2.178 11.7545 4.092 12.1355C3.488 12.298 2.854 12.3215 2.24 12.2044C2.777 13.8505 4.318 14.978 6.073 15.0105C4.62 16.1349 2.825 16.7454 0.977 16.7434C0.651 16.7425 0.325 16.7237 0 16.6853C1.877 17.8707 4.06 18.4998 6.29 18.4969" fill="#525252"/>
</svg>
